<svg id="brain" xmlns="http://www.w3.org/2000/svg" width="24" height="24" viewBox="0 0 24 24" fill="none" stroke="url(#brainGradient)" stroke-width="2" stroke-linecap="round" stroke-linejoin="round" class="icon icon-tabler icons-tabler-outline icon-tabler-brain"><defs><linearGradient id="brainGradient" x1="0%" y1="0%" x2="100%" y2="100%"><stop offset="0%" stop-color="#ff00cc"></stop><stop offset="50%" stop-color="#8a2be2"></stop><stop offset="100%" stop-color="#3333ff"></stop></linearGradient></defs><path stroke="none" d="M0 0h24v24H0z" fill="none"></path><path d="M15.5 13a3.5 3.5 0 0 0 -3.5 3.5v1a3.5 3.5 0 0 0 7 0v-1.8"></path><path d="M8.5 13a3.5 3.5 0 0 1 3.5 3.5v1a3.5 3.5 0 0 1 -7 0v-1.8"></path><path d="M17.5 16a3.5 3.5 0 0 0 0 -7h-.5"></path><path d="M19 9.3v-2.8a3.5 3.5 0 0 0 -7 0"></path><path d="M6.5 16a3.5 3.5 0 0 1 0 -7h.5"></path><path d="M5 9.3v-2.8a3.5 3.5 0 0 1 7 0v10"></path></svg>